<?xml version="1.0" encoding="utf-8"?>
<!-- Generator: Adobe Illustrator 16.0.0, SVG Export Plug-In . SVG Version: 6.00 Build 0)  -->
<!DOCTYPE svg PUBLIC "-//W3C//DTD SVG 1.1//EN" "http://www.w3.org/Graphics/SVG/1.1/DTD/svg11.dtd">
<svg version="1.1" id="Layer_1" xmlns="http://www.w3.org/2000/svg" xmlns:xlink="http://www.w3.org/1999/xlink" x="0px" y="0px"
	 width="612px" height="612px" viewBox="198 0 612 612" enable-background="new 198 0 612 612" xml:space="preserve">
<circle fill="#F5AD00" cx="504" cy="305" r="305"/>
<g>
	<path fill="#2E3E36" d="M337.739,247.186c4.608-15.633,10.852-28.177,18.729-37.625c7.872-9.449,17.041-16.198,27.502-20.247
		s21.539-6.075,33.239-6.075c11.921,0,23.116,2.025,33.577,6.075s19.683,10.798,27.671,20.247
		c7.982,9.448,14.284,21.992,18.897,37.625c4.609,15.639,6.917,34.926,6.917,57.873c0,23.621-2.309,43.361-6.917,59.222
		c-4.613,15.86-10.915,28.516-18.897,37.964c-7.988,9.448-17.21,16.198-27.671,20.247s-21.655,6.074-33.577,6.074
		c-11.7,0-22.778-2.025-33.239-6.074s-19.63-10.799-27.502-20.247c-7.877-9.448-14.121-22.104-18.729-37.964
		c-4.613-15.86-6.917-35.601-6.917-59.222C330.821,282.112,333.125,262.824,337.739,247.186z M379.414,329.523
		c0.448,9.564,1.856,18.786,4.218,27.671c2.362,8.89,6.126,16.482,11.305,22.778c5.172,6.3,12.596,9.448,22.271,9.448
		c9.897,0,17.489-3.148,22.778-9.448c5.284-6.296,9.111-13.889,11.473-22.778c2.363-8.885,3.765-18.106,4.219-27.671
		c0.448-9.56,0.674-17.717,0.674-24.465c0-4.049-0.058-8.942-0.168-14.68c-0.116-5.736-0.564-11.642-1.35-17.716
		c-0.791-6.074-1.914-12.09-3.375-18.053c-1.465-5.958-3.659-11.305-6.58-16.029c-2.926-4.724-6.638-8.547-11.136-11.473
		c-4.502-2.921-10.013-4.387-16.535-4.387c-6.527,0-11.979,1.465-16.366,4.387c-4.387,2.926-7.988,6.749-10.798,11.473
		c-2.816,4.724-5.009,10.071-6.58,16.029c-1.577,5.963-2.7,11.979-3.375,18.053c-0.675,6.074-1.07,11.98-1.181,17.716
		c-0.116,5.737-0.169,10.63-0.169,14.68C378.739,311.807,378.961,319.964,379.414,329.523z"/>
	<path fill="#2E3E36" d="M595.721,424.179V270.976h-59.394v-36.107c8.321,0.227,16.368-0.39,24.129-1.856
		c7.762-1.46,14.731-4.049,20.922-7.762c6.185-3.711,11.415-8.604,15.691-14.679c4.271-6.074,7.087-13.608,8.437-22.608h38.132
		v236.215H595.721z"/>
</g>
</svg>
