<?xml version="1.0" encoding="utf-8"?>
<!-- Generator: Adobe Illustrator 17.1.0, SVG Export Plug-In . SVG Version: 6.00 Build 0)  -->
<!DOCTYPE svg PUBLIC "-//W3C//DTD SVG 1.1//EN" "http://www.w3.org/Graphics/SVG/1.1/DTD/svg11.dtd">
<svg version="1.1" id="Layer_1" xmlns="http://www.w3.org/2000/svg" xmlns:xlink="http://www.w3.org/1999/xlink" x="0px" y="0px"
	 viewBox="0 0 20 20" enable-background="new 0 0 20 20" xml:space="preserve">
<g id="tag">
	<path fill="#D7D3BE" d="M17.7,0h-6.4L0,11.3L8.7,20L19.9,8.8V2.1L17.7,0z M17.1,5.4c-0.7,0.7-1.8,0.7-2.6,0c-0.7-0.7-0.7-1.9,0-2.6
		s1.8-0.7,2.6,0C17.9,3.6,17.9,4.7,17.1,5.4z"/>
</g>
<g id="food_1_" display="none">
	<path display="inline" fill="#E35125" d="M7.5,5H5.8V0H4.2v5H2.5V0H0.8v4.2l0,0v2.5l3.3,2.5v1.7l-0.8,7.5c0,0.9,0.7,1.7,1.7,1.7
		c0.9,0,1.7-0.7,1.7-1.7l-0.8-7.5l0,0V9.1l3.3-2.5V0H7.5V5z M19.2,11.7c0,0,0-10-5.8-11.6v18.3c0,0.9,0.7,1.7,1.7,1.7
		s1.7-0.7,1.7-1.7L16,11.8L19.2,11.7L19.2,11.7z"/>
</g>
<g id="drink_1_" display="none">
	<path display="inline" fill="#E35125" d="M16.7,0H3.3v5.4L5,19.2V20h10v-0.8l1.7-13.9V0z M15,4.6L15,4.6c0,0.6-2.2,1.3-5,1.3
		C7.2,6,5,5.2,5,4.6l0,0l0,0V1.7h10V4.6z"/>
</g>
</svg>
