<?xml version="1.0" encoding="utf-8"?>
<!-- Generator: Adobe Illustrator 16.0.0, SVG Export Plug-In . SVG Version: 6.00 Build 0)  -->
<!DOCTYPE svg PUBLIC "-//W3C//DTD SVG 1.1//EN" "http://www.w3.org/Graphics/SVG/1.1/DTD/svg11.dtd">
<svg version="1.1" id="Layer_1" xmlns:sketch="http://www.bohemiancoding.com/sketch/ns"
	 xmlns="http://www.w3.org/2000/svg" xmlns:xlink="http://www.w3.org/1999/xlink" x="0px" y="0px" width="41px" height="36px"
	 viewBox="0 0 41 36" enable-background="new 0 0 41 36" xml:space="preserve">
<title>colors</title>
<description>Created with Sketch (http://www.bohemiancoding.com/sketch)</description>
<g id="Page-1" sketch:type="MSPage">
	<path id="FOOTER-LOGO" sketch:type="MSShapeGroup" fill="#FFAC00" d="M7.17,7.821c0-1.195,0.896-1.963,1.793-1.963
		c0.896,0,1.579,0.768,1.579,1.963v3.457h6.444V6.712c0-3.457-3.499-6.7-8.023-6.7c-5.506,0-8.578,3.67-8.578,8.322
		c0,3.884,2.091,7.468,5.164,10.541c2.987,2.945,4.822,5.249,4.822,8.066c0,1.492-0.597,2.219-1.877,2.219
		c-1.324,0-2.092-0.938-2.092-2.219V23.74H0v4.566c0,3.457,3.585,6.7,8.792,6.7c5.25,0,8.365-3.969,8.365-8.321
		c0-4.865-3.115-8.237-5.847-11.438C7.896,11.235,7.17,10.382,7.17,7.821L7.17,7.821z M39.667,0H20.688c0,0-1.06,7.648-0.397,12.95
		c0.662,5.302,2.717,7.687,1.789,16.964c-0.331,3.779-0.464,4.805,3.579,5.104h3.247h2.544h3.247
		c4.043-0.299,3.91-1.324,3.578-5.104c-0.926-9.277,1.127-11.662,1.791-16.964C40.729,7.648,39.667,0,39.667,0L39.667,0z
		 M36.221,8.99h-3.369v21.476h-5.185V8.99h-3.53V4.552h12.084V8.99L36.221,8.99z"/>
</g>
</svg>
