<?xml version="1.0" encoding="utf-8"?>
<!-- Generator: Adobe Illustrator 17.1.0, SVG Export Plug-In . SVG Version: 6.00 Build 0)  -->
<!DOCTYPE svg PUBLIC "-//W3C//DTD SVG 1.1//EN" "http://www.w3.org/Graphics/SVG/1.1/DTD/svg11.dtd">
<svg version="1.1" id="Layer_1" xmlns="http://www.w3.org/2000/svg" xmlns:xlink="http://www.w3.org/1999/xlink" x="0px" y="0px"
	 viewBox="90 0 612 612" enable-background="new 90 0 612 612" xml:space="preserve">
<g id="tag">
	<path fill="#CAD2D1" d="M631.6,0H435.8L90,345.8L356.2,612l342.7-342.7v-205L631.6,0z M613.3,165.2c-21.4,21.4-55.1,21.4-79.6,0
		c-21.4-21.4-21.4-58.1,0-79.6s55.1-21.4,79.6,0C637.7,110.2,637.7,143.8,613.3,165.2z"/>
</g>
<g id="food_1_" display="none">
	<path display="inline" fill="#E35125" d="M319.5,153h-52V0h-49v153h-52V0h-52v128.5l0,0V205l101,76.5v52L191,563
		c0,27.5,21.4,52,52,52c27.5,0,52-21.4,52-52l-24.5-229.5l0,0v-55.1l101-76.5V0h-52V153z M677.5,358c0,0,0-306-177.5-355v560
		c0,27.5,21.4,52,52,52s52-21.4,52-52l-24.5-202L677.5,358L677.5,358z"/>
</g>
<g id="drink_1_" display="none">
	<path display="inline" fill="#E35125" d="M601,0H191v165.2l52,422.3V612h306v-24.5l52-425.3V0z M549,140.8L549,140.8
		c0,18.4-67.3,39.8-153,39.8c-85.7,3.1-153-21.4-153-39.8l0,0l0,0V52h306V140.8z"/>
</g>
</svg>
