<?xml version="1.0" encoding="utf-8"?>
<!-- Generator: Adobe Illustrator 16.0.0, SVG Export Plug-In . SVG Version: 6.00 Build 0)  -->
<!DOCTYPE svg PUBLIC "-//W3C//DTD SVG 1.1//EN" "http://www.w3.org/Graphics/SVG/1.1/DTD/svg11.dtd">
<svg version="1.1" id="Layer_1" xmlns="http://www.w3.org/2000/svg" xmlns:xlink="http://www.w3.org/1999/xlink" x="0px" y="0px"
	 width="612px" height="612px" viewBox="198 0 612 612" enable-background="new 198 0 612 612" xml:space="preserve">
<g id="tag" display="none">
	<path display="inline" fill="#E35125" d="M814.3,0H572.6L288,284.6L615.4,612l281.5-281.5V79.6L814.3,0z M792.9,205
		c-27.5,27.5-70.4,27.5-94.9,0c-27.5-27.5-27.5-70.4,0-94.9c27.5-27.5,70.4-27.5,94.9,0C820.4,134.6,820.4,177.5,792.9,205z"/>
</g>
<g id="food_1_">
	<path fill="#D4D2CE" d="M427.5,153h-52V0h-49v153h-52V0h-52v128.5l0,0V205l101,76.5v52L299,563c0,27.5,21.4,52,52,52
		c27.5,0,52-21.4,52-52l-24.5-229.5l0,0v-55.1l101-76.5V0h-52V153z M785.5,358c0,0,0-306-177.5-355v560c0,27.5,21.4,52,52,52
		s52-21.4,52-52l-24.5-202L785.5,358L785.5,358z"/>
</g>
<g id="drink_1_" display="none">
	<path display="inline" fill="#E35125" d="M799,0H389v165.2l52,422.3V612h306v-24.5l52-425.3V0z M747,140.8L747,140.8
		c0,18.4-67.3,39.8-153,39.8c-85.7,3.1-153-21.4-153-39.8l0,0l0,0V52h306V140.8z"/>
</g>
</svg>
