<?xml version="1.0" encoding="utf-8"?>
<!-- Generator: Adobe Illustrator 17.1.0, SVG Export Plug-In . SVG Version: 6.00 Build 0)  -->
<!DOCTYPE svg PUBLIC "-//W3C//DTD SVG 1.1//EN" "http://www.w3.org/Graphics/SVG/1.1/DTD/svg11.dtd">
<svg version="1.1" id="Layer_1" xmlns="http://www.w3.org/2000/svg" xmlns:xlink="http://www.w3.org/1999/xlink" x="0px" y="0px"
	 viewBox="0 0 20 20" enable-background="new 0 0 20 20" xml:space="preserve">
<g>
	<path fill="#E24000" d="M16.7,6.7c0,1.2-0.3,2.3-0.9,3.3l-5.4,9.9C10.3,19.9,10.1,20,10,20c-0.2,0-0.3-0.1-0.4-0.2L4.2,9.9
		C3.6,9,3.3,7.8,3.3,6.7C3.3,3,6.3,0,10,0S16.7,3,16.7,6.7z M12.5,6.7c0-1.4-1.1-2.5-2.5-2.5S7.5,5.3,7.5,6.7S8.6,9.2,10,9.2
		S12.5,8.1,12.5,6.7z"/>
</g>
</svg>
