<?xml version="1.0" encoding="utf-8"?>
<!-- Generator: Adobe Illustrator 16.0.0, SVG Export Plug-In . SVG Version: 6.00 Build 0)  -->
<!DOCTYPE svg PUBLIC "-//W3C//DTD SVG 1.1//EN" "http://www.w3.org/Graphics/SVG/1.1/DTD/svg11.dtd">
<svg version="1.1" id="Layer_1" xmlns:sketch="http://www.bohemiancoding.com/sketch/ns"
	 xmlns="http://www.w3.org/2000/svg" xmlns:xlink="http://www.w3.org/1999/xlink" x="0px" y="0px" width="154px" height="40px"
	 viewBox="0 0 154 40" enable-background="new 0 0 154 40" xml:space="preserve">
<title>Artboard 1</title>
<description>Created with Sketch (http://www.bohemiancoding.com/sketch)</description>
<g id="Page-1" sketch:type="MSPage">
	<g id="Artboard-1" transform="translate(-526.000000, -125.000000)" sketch:type="MSArtboardGroup">
		<path id="smalltabs-logo" sketch:type="MSShapeGroup" fill="#FFFFFF" d="M570.495,130.497l-3.799,28.555h5.088l0.538-4.462h2.581
			l0.358,4.462h5.948l-3.87-28.555H570.495L570.495,130.497z M572.788,149.521l1.075-9.388l0.716,9.388H572.788L572.788,149.521z
			 M553.827,143.525l-2.115-13.028h-8.743v28.555h5.159v-18.204l3.225,18.204h3.763l3.583-18.168v18.168h5.733v-28.555h-8.348
			L553.827,143.525L553.827,143.525z M532.02,136.672c0-0.999,0.752-1.642,1.505-1.642c0.752,0,1.326,0.643,1.326,1.642v2.892h5.41
			v-3.819c0-2.892-2.938-5.604-6.735-5.604c-4.623,0-7.203,3.069-7.203,6.96c0,3.249,1.756,6.247,4.335,8.817
			c2.508,2.462,4.049,4.391,4.049,6.745c0,1.25-0.502,1.856-1.577,1.856c-1.111,0-1.756-0.785-1.756-1.856v-2.677H526v3.818
			c0,2.891,3.01,5.604,7.381,5.604c4.408,0,7.023-3.318,7.023-6.959c0-4.07-2.615-6.892-4.908-9.566
			C532.63,139.527,532.02,138.813,532.02,136.672L532.02,136.672z M589.388,130.497h-5.769v28.555h11.287v-5.067h-5.518V130.497
			L589.388,130.497z M603.121,130.497h-5.769v28.555h11.289v-5.067h-5.52V130.497L603.121,130.497z"/>
	</g>
</g>
<g id="Page-1_1_" sketch:type="MSPage">
	<g id="Artboard-1_1_" transform="translate(-526.000000, -125.000000)" sketch:type="MSArtboardGroup">
		<path id="smalltabs-logo_1_" sketch:type="MSShapeGroup" fill="#FFAC00" d="M674.706,142.883c-2.866-3.356-3.476-4.07-3.476-6.211
			c0-0.999,0.752-1.642,1.504-1.642c0.754,0,1.326,0.643,1.326,1.642v2.892h5.41v-3.819c0-2.892-2.938-5.604-6.736-5.604
			c-4.621,0-7.201,3.069-7.201,6.96c0,3.249,1.756,6.247,4.336,8.817c2.508,2.462,4.049,4.391,4.049,6.745
			c0,1.25-0.502,1.856-1.577,1.856c-1.11,0-1.755-0.785-1.755-1.856v-2.677h-5.376v3.818c0,2.891,3.011,5.604,7.382,5.604
			c4.408,0,7.023-3.318,7.023-6.959C679.615,148.379,677,145.559,674.706,142.883L674.706,142.883z M657.057,130.497h-7.022v28.555
			h7.022c2.758,0,5.877-1.569,5.877-5.211v-6.175c0-1.355-0.719-2.392-2.223-3.141c1.504-0.75,2.223-1.821,2.223-3.141v-5.676
			C662.934,132.067,659.814,130.497,657.057,130.497L657.057,130.497z M657.557,152.877c0,0.82-0.356,1.143-0.967,1.143h-0.824
			v-6.891h0.824c0.609,0,0.967,0.323,0.967,1.143V152.877L657.557,152.877z M657.557,140.955c0,0.786-0.356,1.106-0.967,1.106
			h-0.824v-6.496h0.824c0.609,0,0.967,0.322,0.967,1.143V140.955L657.557,140.955z M636.908,130.497l-3.799,28.555h5.089
			l0.538-4.462h2.58l0.356,4.462h5.949l-3.871-28.555H636.908L636.908,130.497z M639.202,149.521l1.075-9.388l0.716,9.388H639.202
			L639.202,149.521z M610.928,125c0,0-1.193,8.585-0.447,14.536c0.746,5.953,3.062,8.63,2.017,19.044
			c-0.373,4.24-0.522,5.393,4.032,5.729h3.66h0.611h3.66c4.557-0.336,4.406-1.488,4.033-5.729
			c-1.045-10.414,1.27-13.091,2.016-19.044c0.747-5.951-0.449-14.536-0.449-14.536H610.928L610.928,125z M627.305,135.176h-3.797
			v24.108h-5.841v-24.108h-3.979v-4.98h13.617V135.176L627.305,135.176z"/>
	</g>
</g>
</svg>
